<?xml version="1.0" encoding="utf-8"?>
<!-- Generator: Adobe Illustrator 15.0.0, SVG Export Plug-In . SVG Version: 6.00 Build 0)  -->
<!DOCTYPE svg PUBLIC "-//W3C//DTD SVG 1.1//EN" "http://www.w3.org/Graphics/SVG/1.1/DTD/svg11.dtd">
<svg version="1.1" xmlns="http://www.w3.org/2000/svg" xmlns:xlink="http://www.w3.org/1999/xlink" x="0px" y="0px" width="420px"
	 height="420px" viewBox="0 0 420 420" enable-background="new 0 0 420 420" xml:space="preserve">
<g id="Complete" display="none">
	<path display="inline" fill="#FFDD14" d="M345.862,109.198L261.859,48H158.028l-84.002,61.335L41.939,208.39l32.086,99.028
		L158.028,369h103.832l84.003-61.624l32.086-99.346L345.862,109.198z M287.323,278h-41.752l-33.757-48.988
		c-1.748,38.207-24.695,51.676-55.502,51.676c-7.859,0-20.676-4.116-27.226-7.688l6.493-34.495
		c4.585,2.916,10.474,4.696,17.021,4.696c13.962,0,22.686-3.037,22.686-25.72L175.375,136H212v47.549L247.651,136h43.15
		l-51.499,70.186L287.323,278z"/>
	<polygon display="inline" fill="none" stroke="#FFDD14" stroke-width="4" stroke-miterlimit="10" points="154.438,380 
		64.629,313.693 30.325,207.585 64.629,102.129 154.438,37 265.45,37 355.26,101.865 389.563,207.25 355.26,313.79 265.45,380 	"/>
</g>
<g id="No_Outer">
	<path id="Logo_1_" fill="#212121" d="M287.323,277.875h-41.752l-33.757-48.925c-1.748,38.207-24.695,51.708-55.502,51.708
		c-7.859,0-20.676-4.101-27.226-7.673l6.493-34.487c4.585,2.916,10.474,4.7,17.021,4.7c13.962,0,22.686-2.849,22.686-25.533
		l0.088-81.294h36.559v47.178l35.718-47.404h43.15l-51.499,70.05L287.323,277.875z"/>
</g>
</svg>
