<?xml version="1.0" encoding="utf-8"?>
<!-- Generator: Adobe Illustrator 15.0.0, SVG Export Plug-In . SVG Version: 6.00 Build 0)  -->
<!DOCTYPE svg PUBLIC "-//W3C//DTD SVG 1.1//EN" "http://www.w3.org/Graphics/SVG/1.1/DTD/svg11.dtd">
<svg version="1.1" xmlns="http://www.w3.org/2000/svg" xmlns:xlink="http://www.w3.org/1999/xlink" x="0px" y="0px" width="420px"
	 height="420px" viewBox="0 0 420 420" enable-background="new 0 0 420 420" xml:space="preserve">
<g id="Surround__x23_1" display="none">
	<polygon display="inline" fill="#FFDD14" points="158.028,369 74.025,307.418 41.939,208.39 74.025,109.335 158.028,48 261.859,48 
		345.862,109.198 377.948,208.03 345.862,307.376 261.859,369 	"/>
	<polygon display="inline" fill="none" stroke="#FFDD14" stroke-width="4" stroke-miterlimit="10" points="154.438,380 
		64.629,313.693 30.325,207.585 64.629,102.129 154.438,37 265.45,37 355.26,101.865 389.563,207.25 355.26,313.79 265.45,380 	"/>
</g>
<g id="Surround__x23_2" display="none">
	<polygon fill="#FFDD14" points="179.654,352 124.313,327.617 83.777,282.728 65.057,225.179 71.39,164.963 101.679,112.516 
		150.688,76.916 209.944,64.326 269.199,76.923 318.209,112.531 348.497,164.995 354.831,225.242 336.11,282.856 295.575,327.617 
		240.232,352 	"/>
	<polygon fill="none" stroke="#FFDD14" stroke-width="5" stroke-miterlimit="10" points="176.99,366.5 116.78,338.592 
		72.678,289.062 52.312,226.106 59.201,160.42 92.155,103.274 145.476,64.499 209.944,50.779 274.412,64.474 327.732,103.208 
		360.688,160.285 367.576,225.83 347.209,288.513 303.108,338.592 242.897,366.5 	"/>
	<polygon display="inline" fill="#FFDD14" points="169.208,366 95.264,322.736 52,248.792 52,164.969 95.264,92.645 169.208,51 
		253.032,51 325.355,92.645 367,164.969 367,248.792 325.355,322.736 253.032,366 	"/>
	<polygon display="inline" fill="none" stroke="#FFDD14" stroke-width="3" stroke-miterlimit="10" points="165.115,383.5 
		82.909,335.092 34.5,252.885 34.5,160.547 82.909,81.625 165.115,36.5 257.454,36.5 336.375,81.625 381.5,160.547 381.5,252.885 
		336.375,335.092 257.454,383.5 	"/>
</g>
<g id="Final">
	<path fill="#FFDD14" d="M345.862,109.198L261.859,48H158.028l-84.002,61.335L41.939,208.39l32.086,99.028L158.028,369h103.832
		l84.003-61.624l32.086-99.346L345.862,109.198z M287.323,278h-41.752l-33.757-48.988c-1.748,38.207-24.695,51.676-55.502,51.676
		c-7.859,0-20.676-4.116-27.226-7.688l6.493-34.495c4.585,2.916,10.474,4.696,17.021,4.696c13.962,0,22.686-3.037,22.686-25.72
		L175.375,136H212v47.549L247.651,136h43.15l-51.499,70.186L287.323,278z"/>
	<polygon fill="none" stroke="#FFDD14" stroke-width="4" stroke-miterlimit="10" points="154.438,380 64.629,313.693 
		30.325,207.585 64.629,102.129 154.438,37 265.45,37 355.26,101.865 389.563,207.25 355.26,313.79 265.45,380 	"/>
</g>
</svg>
